<?xml version="1.0" encoding="UTF-8" standalone="no"?><svg xmlns="http://www.w3.org/2000/svg" xmlns:xlink="http://www.w3.org/1999/xlink" contentStyleType="text/css" height="1691px" preserveAspectRatio="none" style="width:1696px;height:1691px;background:#FFFFFF;" version="1.1" viewBox="0 0 1696 1691" width="1696px" zoomAndPan="magnify"><defs/><g><rect height="972.8516" style="stroke:#000000;stroke-width:1.5;fill:none;" width="1589.5" x="101" y="153.6953"/><rect height="117.5313" style="stroke:#000000;stroke-width:1.5;fill:none;" width="1325" x="111" y="349.4922"/><rect height="59.2656" style="stroke:#000000;stroke-width:1.5;fill:none;" width="271" x="111" y="740.0859"/><rect height="17.1328" style="stroke:#000000;stroke-width:1.5;fill:none;" width="171" x="131" y="813.3516"/><rect height="90.3984" style="stroke:#000000;stroke-width:1.5;fill:none;" width="198" x="111" y="886.6172"/><rect height="17.1328" style="stroke:#000000;stroke-width:1.5;fill:none;" width="171" x="131" y="910.75"/><rect height="59.2656" style="stroke:#000000;stroke-width:1.5;fill:none;" width="271" x="111" y="1253.9453"/><rect height="134.5313" style="stroke:#000000;stroke-width:1.5;fill:none;" width="369" x="101" y="1327.2109"/><rect height="103.3984" style="stroke:#000000;stroke-width:1.5;fill:none;" width="349" x="111" y="1351.3438"/><rect height="134.5313" style="stroke:#000000;stroke-width:1.5;fill:none;" width="369" x="101" y="1475.7422"/><rect height="103.3984" style="stroke:#000000;stroke-width:1.5;fill:none;" width="349" x="111" y="1499.875"/><line style="stroke:#181818;stroke-width:0.5;fill:none;stroke-dasharray:5.0,5.0;" x1="168" x2="168" y1="36.2969" y2="1656.4063"/><line style="stroke:#181818;stroke-width:0.5;fill:none;stroke-dasharray:5.0,5.0;" x1="464" x2="464" y1="36.2969" y2="1656.4063"/><line style="stroke:#181818;stroke-width:0.5;fill:none;stroke-dasharray:5.0,5.0;" x1="566" x2="566" y1="36.2969" y2="1656.4063"/><line style="stroke:#181818;stroke-width:0.5;fill:none;stroke-dasharray:5.0,5.0;" x1="947" x2="947" y1="36.2969" y2="1656.4063"/><line style="stroke:#181818;stroke-width:0.5;fill:none;stroke-dasharray:5.0,5.0;" x1="1357" x2="1357" y1="36.2969" y2="1656.4063"/><line style="stroke:#181818;stroke-width:0.5;fill:none;stroke-dasharray:5.0,5.0;" x1="1617.5" x2="1617.5" y1="36.2969" y2="1656.4063"/><rect fill="#E2E2F0" height="30.2969" rx="2.5" ry="2.5" style="stroke:#181818;stroke-width:0.5;" width="94" x="121" y="5"/><text fill="#000000" font-family="sans-serif" font-size="14" lengthAdjust="spacing" textLength="80" x="128" y="24.9951">Oh_Heaven</text><rect fill="#E2E2F0" height="30.2969" rx="2.5" ry="2.5" style="stroke:#181818;stroke-width:0.5;" width="94" x="121" y="1655.4063"/><text fill="#000000" font-family="sans-serif" font-size="14" lengthAdjust="spacing" textLength="80" x="128" y="1675.4014">Oh_Heaven</text><rect fill="#E2E2F0" height="30.2969" rx="2.5" ry="2.5" style="stroke:#181818;stroke-width:0.5;" width="140" x="394" y="5"/><text fill="#000000" font-family="sans-serif" font-size="14" lengthAdjust="spacing" textLength="126" x="401" y="24.9951">propertiesLoader</text><rect fill="#E2E2F0" height="30.2969" rx="2.5" ry="2.5" style="stroke:#181818;stroke-width:0.5;" width="140" x="394" y="1655.4063"/><text fill="#000000" font-family="sans-serif" font-size="14" lengthAdjust="spacing" textLength="126" x="401" y="1675.4014">propertiesLoader</text><rect fill="#E2E2F0" height="30.2969" rx="2.5" ry="2.5" style="stroke:#181818;stroke-width:0.5;" width="45" x="544" y="5"/><text fill="#000000" font-family="sans-serif" font-size="14" lengthAdjust="spacing" textLength="31" x="551" y="24.9951">Rule</text><rect fill="#E2E2F0" height="30.2969" rx="2.5" ry="2.5" style="stroke:#181818;stroke-width:0.5;" width="45" x="544" y="1655.4063"/><text fill="#000000" font-family="sans-serif" font-size="14" lengthAdjust="spacing" textLength="31" x="551" y="1675.4014">Rule</text><rect fill="#E2E2F0" height="30.2969" rx="2.5" ry="2.5" style="stroke:#181818;stroke-width:0.5;" width="61" x="917" y="5"/><text fill="#000000" font-family="sans-serif" font-size="14" lengthAdjust="spacing" textLength="47" x="924" y="24.9951">Dealer</text><rect fill="#E2E2F0" height="30.2969" rx="2.5" ry="2.5" style="stroke:#181818;stroke-width:0.5;" width="61" x="917" y="1655.4063"/><text fill="#000000" font-family="sans-serif" font-size="14" lengthAdjust="spacing" textLength="47" x="924" y="1675.4014">Dealer</text><rect fill="#E2E2F0" height="30.2969" rx="2.5" ry="2.5" style="stroke:#181818;stroke-width:0.5;" width="137" x="1289" y="5"/><text fill="#000000" font-family="sans-serif" font-size="14" lengthAdjust="spacing" textLength="123" x="1296" y="24.9951">CompositePlayer</text><rect fill="#E2E2F0" height="30.2969" rx="2.5" ry="2.5" style="stroke:#181818;stroke-width:0.5;" width="137" x="1289" y="1655.4063"/><text fill="#000000" font-family="sans-serif" font-size="14" lengthAdjust="spacing" textLength="123" x="1296" y="1675.4014">CompositePlayer</text><rect fill="#E2E2F0" height="30.2969" rx="2.5" ry="2.5" style="stroke:#181818;stroke-width:0.5;" width="126" x="1554.5" y="5"/><text fill="#000000" font-family="sans-serif" font-size="14" lengthAdjust="spacing" textLength="112" x="1561.5" y="24.9951">ServiceRandom</text><rect fill="#E2E2F0" height="30.2969" rx="2.5" ry="2.5" style="stroke:#181818;stroke-width:0.5;" width="126" x="1554.5" y="1655.4063"/><text fill="#000000" font-family="sans-serif" font-size="14" lengthAdjust="spacing" textLength="112" x="1561.5" y="1675.4014">ServiceRandom</text><polygon fill="#181818" points="156,63.4297,166,67.4297,156,71.4297,160,67.4297" style="stroke:#181818;stroke-width:1.0;"/><line style="stroke:#181818;stroke-width:1.0;" x1="0" x2="162" y1="67.4297" y2="67.4297"/><text fill="#000000" font-family="sans-serif" font-size="13" lengthAdjust="spacing" textLength="31" x="7" y="62.3638">run()</text><polygon fill="#181818" points="452,92.5625,462,96.5625,452,100.5625,456,96.5625" style="stroke:#181818;stroke-width:1.0;"/><line style="stroke:#181818;stroke-width:1.0;" x1="168" x2="458" y1="96.5625" y2="96.5625"/><text fill="#000000" font-family="sans-serif" font-size="13" lengthAdjust="spacing" textLength="123" x="175" y="91.4966">loadPropertiesFile()</text><line style="stroke:#181818;stroke-width:1.0;" x1="168" x2="210" y1="125.6953" y2="125.6953"/><line style="stroke:#181818;stroke-width:1.0;" x1="210" x2="210" y1="125.6953" y2="138.6953"/><line style="stroke:#181818;stroke-width:1.0;" x1="169" x2="210" y1="138.6953" y2="138.6953"/><polygon fill="#181818" points="179,134.6953,169,138.6953,179,142.6953,175,138.6953" style="stroke:#181818;stroke-width:1.0;"/><text fill="#000000" font-family="sans-serif" font-size="13" lengthAdjust="spacing" textLength="37" x="175" y="120.6294">play()</text><path d="M101,153.6953 L179,153.6953 L179,160.8281 L169,170.8281 L101,170.8281 L101,153.6953 " fill="#EEEEEE" style="stroke:#000000;stroke-width:1.5;"/><rect fill="none" height="972.8516" style="stroke:#000000;stroke-width:1.5;" width="1589.5" x="101" y="153.6953"/><text fill="#000000" font-family="sans-serif" font-size="13" font-weight="bold" lengthAdjust="spacing" textLength="33" x="116" y="166.7622">loop</text><text fill="#000000" font-family="sans-serif" font-size="11" font-weight="bold" lengthAdjust="spacing" textLength="78" x="194" y="165.9058">[nbRounds:]</text><polygon fill="#181818" points="554.5,187.9609,564.5,191.9609,554.5,195.9609,558.5,191.9609" style="stroke:#181818;stroke-width:1.0;"/><line style="stroke:#181818;stroke-width:1.0;" x1="168" x2="560.5" y1="191.9609" y2="191.9609"/><text fill="#000000" font-family="sans-serif" font-size="13" lengthAdjust="spacing" textLength="199" x="175" y="186.895">initTricks(List&lt;Player&gt; players)</text><polygon fill="#181818" points="935.5,217.0938,945.5,221.0938,935.5,225.0938,939.5,221.0938" style="stroke:#181818;stroke-width:1.0;"/><line style="stroke:#181818;stroke-width:1.0;" x1="168" x2="941.5" y1="221.0938" y2="221.0938"/><text fill="#000000" font-family="sans-serif" font-size="13" lengthAdjust="spacing" textLength="86" x="175" y="216.0278">Dealer dealer</text><line style="stroke:#181818;stroke-width:1.0;" x1="947.5" x2="989.5" y1="250.2266" y2="250.2266"/><line style="stroke:#181818;stroke-width:1.0;" x1="989.5" x2="989.5" y1="250.2266" y2="263.2266"/><line style="stroke:#181818;stroke-width:1.0;" x1="948.5" x2="989.5" y1="263.2266" y2="263.2266"/><polygon fill="#181818" points="958.5,259.2266,948.5,263.2266,958.5,267.2266,954.5,263.2266" style="stroke:#181818;stroke-width:1.0;"/><text fill="#000000" font-family="sans-serif" font-size="13" lengthAdjust="spacing" textLength="396" x="954.5" y="245.1606">dealingOut(Card deck, List&lt;Player&gt; players, int nbStartCards)</text><polygon fill="#181818" points="1345.5,288.3594,1355.5,292.3594,1345.5,296.3594,1349.5,292.3594" style="stroke:#181818;stroke-width:1.0;"/><line style="stroke:#181818;stroke-width:1.0;" x1="168" x2="1351.5" y1="292.3594" y2="292.3594"/><text fill="#000000" font-family="sans-serif" font-size="13" lengthAdjust="spacing" textLength="128" x="175" y="287.2935">CompositePlayer cp</text><line style="stroke:#181818;stroke-width:1.0;" x1="1357.5" x2="1399.5" y1="321.4922" y2="321.4922"/><line style="stroke:#181818;stroke-width:1.0;" x1="1399.5" x2="1399.5" y1="321.4922" y2="334.4922"/><line style="stroke:#181818;stroke-width:1.0;" x1="1358.5" x2="1399.5" y1="334.4922" y2="334.4922"/><polygon fill="#181818" points="1368.5,330.4922,1358.5,334.4922,1368.5,338.4922,1364.5,334.4922" style="stroke:#181818;stroke-width:1.0;"/><text fill="#000000" font-family="sans-serif" font-size="13" lengthAdjust="spacing" textLength="246" x="1364.5" y="316.4263">playerSortCards(List&lt;Player&gt; players)</text><path d="M111,349.4922 L189,349.4922 L189,356.625 L179,366.625 L111,366.625 L111,349.4922 " fill="#EEEEEE" style="stroke:#000000;stroke-width:1.5;"/><rect fill="none" height="117.5313" style="stroke:#000000;stroke-width:1.5;" width="1325" x="111" y="349.4922"/><text fill="#000000" font-family="sans-serif" font-size="13" font-weight="bold" lengthAdjust="spacing" textLength="33" x="126" y="362.5591">loop</text><text fill="#000000" font-family="sans-serif" font-size="11" font-weight="bold" lengthAdjust="spacing" textLength="256" x="204" y="361.7026">[[Player player: List&lt;Player&gt; players]:]</text><polygon fill="#181818" points="1345.5,383.7578,1355.5,387.7578,1345.5,391.7578,1349.5,387.7578" style="stroke:#181818;stroke-width:1.0;"/><line style="stroke:#181818;stroke-width:1.0;" x1="168" x2="1351.5" y1="387.7578" y2="387.7578"/><text fill="#000000" font-family="sans-serif" font-size="13" lengthAdjust="spacing" textLength="214" x="175" y="382.6919">getPlayerType().equals("human")</text><polygon fill="#181818" points="179,412.8906,169,416.8906,179,420.8906,175,416.8906" style="stroke:#181818;stroke-width:1.0;"/><line style="stroke:#181818;stroke-width:1.0;stroke-dasharray:2.0,2.0;" x1="173" x2="1356.5" y1="416.8906" y2="416.8906"/><text fill="#000000" font-family="sans-serif" font-size="13" lengthAdjust="spacing" textLength="72" x="185" y="411.8247">playerType</text><line style="stroke:#181818;stroke-width:1.0;" x1="168" x2="210" y1="446.0234" y2="446.0234"/><line style="stroke:#181818;stroke-width:1.0;" x1="210" x2="210" y1="446.0234" y2="459.0234"/><line style="stroke:#181818;stroke-width:1.0;" x1="169" x2="210" y1="459.0234" y2="459.0234"/><polygon fill="#181818" points="179,455.0234,169,459.0234,179,463.0234,175,459.0234" style="stroke:#181818;stroke-width:1.0;"/><text fill="#000000" font-family="sans-serif" font-size="13" lengthAdjust="spacing" textLength="184" x="175" y="440.9575">setHumanInteraction(player)</text><line style="stroke:#181818;stroke-width:1.0;" x1="168" x2="210" y1="495.1563" y2="495.1563"/><line style="stroke:#181818;stroke-width:1.0;" x1="210" x2="210" y1="495.1563" y2="508.1563"/><line style="stroke:#181818;stroke-width:1.0;" x1="169" x2="210" y1="508.1563" y2="508.1563"/><polygon fill="#181818" points="179,504.1563,169,508.1563,179,512.1563,175,508.1563" style="stroke:#181818;stroke-width:1.0;"/><text fill="#000000" font-family="sans-serif" font-size="13" lengthAdjust="spacing" textLength="218" x="175" y="490.0903">initGraphics(List&lt;Player&gt; players)</text><polygon fill="#181818" points="1345.5,533.2891,1355.5,537.2891,1345.5,541.2891,1349.5,537.2891" style="stroke:#181818;stroke-width:1.0;"/><line style="stroke:#181818;stroke-width:1.0;" x1="168" x2="1351.5" y1="537.2891" y2="537.2891"/><text fill="#000000" font-family="sans-serif" font-size="13" lengthAdjust="spacing" textLength="78" x="175" y="532.2231">getPlayers()</text><polygon fill="#181818" points="179,562.4219,169,566.4219,179,570.4219,175,566.4219" style="stroke:#181818;stroke-width:1.0;"/><line style="stroke:#181818;stroke-width:1.0;stroke-dasharray:2.0,2.0;" x1="173" x2="1356.5" y1="566.4219" y2="566.4219"/><text fill="#000000" font-family="sans-serif" font-size="13" lengthAdjust="spacing" textLength="133" x="185" y="561.356">List&lt;Player&gt; players</text><polygon fill="#181818" points="1605.5,591.5547,1615.5,595.5547,1605.5,599.5547,1609.5,595.5547" style="stroke:#181818;stroke-width:1.0;"/><line style="stroke:#181818;stroke-width:1.0;" x1="168" x2="1611.5" y1="595.5547" y2="595.5547"/><text fill="#000000" font-family="sans-serif" font-size="13" lengthAdjust="spacing" textLength="262" x="175" y="590.4888">getSeedRandom().nextInt(players.size())</text><polygon fill="#181818" points="179,620.6875,169,624.6875,179,628.6875,175,624.6875" style="stroke:#181818;stroke-width:1.0;"/><line style="stroke:#181818;stroke-width:1.0;stroke-dasharray:2.0,2.0;" x1="173" x2="1616.5" y1="624.6875" y2="624.6875"/><text fill="#000000" font-family="sans-serif" font-size="13" lengthAdjust="spacing" textLength="89" x="185" y="619.6216">int nextPlayer</text><polygon fill="#181818" points="179,649.8203,169,653.8203,179,657.8203,175,653.8203" style="stroke:#181818;stroke-width:1.0;"/><line style="stroke:#181818;stroke-width:1.0;" x1="173" x2="1616.5" y1="653.8203" y2="653.8203"/><text fill="#000000" font-family="sans-serif" font-size="13" lengthAdjust="spacing" textLength="69" x="185" y="648.7544">nextPlayer</text><polygon fill="#181818" points="554.5,678.9531,564.5,682.9531,554.5,686.9531,558.5,682.9531" style="stroke:#181818;stroke-width:1.0;"/><line style="stroke:#181818;stroke-width:1.0;" x1="168" x2="560.5" y1="682.9531" y2="682.9531"/><text fill="#000000" font-family="sans-serif" font-size="13" lengthAdjust="spacing" textLength="56" x="175" y="677.8872">Rule rule</text><line style="stroke:#181818;stroke-width:1.0;" x1="566.5" x2="608.5" y1="712.0859" y2="712.0859"/><line style="stroke:#181818;stroke-width:1.0;" x1="608.5" x2="608.5" y1="712.0859" y2="725.0859"/><line style="stroke:#181818;stroke-width:1.0;" x1="567.5" x2="608.5" y1="725.0859" y2="725.0859"/><polygon fill="#181818" points="577.5,721.0859,567.5,725.0859,577.5,729.0859,573.5,725.0859" style="stroke:#181818;stroke-width:1.0;"/><text fill="#000000" font-family="sans-serif" font-size="13" lengthAdjust="spacing" textLength="367" x="573.5" y="707.02">initBids(Suit trumps, int nextPlayer, List&lt;Player&gt; players)</text><path d="M111,740.0859 L189,740.0859 L189,747.2188 L179,757.2188 L111,757.2188 L111,740.0859 " fill="#EEEEEE" style="stroke:#000000;stroke-width:1.5;"/><rect fill="none" height="59.2656" style="stroke:#000000;stroke-width:1.5;" width="271" x="111" y="740.0859"/><text fill="#000000" font-family="sans-serif" font-size="13" font-weight="bold" lengthAdjust="spacing" textLength="33" x="126" y="753.1528">loop</text><text fill="#000000" font-family="sans-serif" font-size="11" font-weight="bold" lengthAdjust="spacing" textLength="123" x="204" y="752.2964">[i = [0:nbPlayers]:]</text><line style="stroke:#181818;stroke-width:1.0;" x1="168" x2="210" y1="778.3516" y2="778.3516"/><line style="stroke:#181818;stroke-width:1.0;" x1="210" x2="210" y1="778.3516" y2="791.3516"/><line style="stroke:#181818;stroke-width:1.0;" x1="169" x2="210" y1="791.3516" y2="791.3516"/><polygon fill="#181818" points="179,787.3516,169,791.3516,179,795.3516,175,791.3516" style="stroke:#181818;stroke-width:1.0;"/><text fill="#000000" font-family="sans-serif" font-size="13" lengthAdjust="spacing" textLength="195" x="175" y="773.2856">updatePlayerScoreActors(int i)</text><path d="M131,813.3516 L204,813.3516 L204,820.4844 L194,830.4844 L131,830.4844 L131,813.3516 " fill="#EEEEEE" style="stroke:#000000;stroke-width:1.5;"/><rect fill="none" height="17.1328" style="stroke:#000000;stroke-width:1.5;" width="171" x="131" y="813.3516"/><text fill="#000000" font-family="sans-serif" font-size="13" font-weight="bold" lengthAdjust="spacing" textLength="23" x="146" y="826.4185">ref</text><text fill="#000000" font-family="sans-serif" font-size="11" font-weight="bold" lengthAdjust="spacing" textLength="78" x="219" y="825.562">[pickPlayer]</text><line style="stroke:#181818;stroke-width:1.0;" x1="168" x2="210" y1="858.6172" y2="858.6172"/><line style="stroke:#181818;stroke-width:1.0;" x1="210" x2="210" y1="858.6172" y2="871.6172"/><line style="stroke:#181818;stroke-width:1.0;" x1="169" x2="210" y1="871.6172" y2="871.6172"/><polygon fill="#181818" points="179,867.6172,169,871.6172,179,875.6172,175,871.6172" style="stroke:#181818;stroke-width:1.0;"/><text fill="#000000" font-family="sans-serif" font-size="13" lengthAdjust="spacing" textLength="122" x="175" y="853.5513">selection.transfer()</text><path d="M111,886.6172 L189,886.6172 L189,893.75 L179,903.75 L111,903.75 L111,886.6172 " fill="#EEEEEE" style="stroke:#000000;stroke-width:1.5;"/><rect fill="none" height="90.3984" style="stroke:#000000;stroke-width:1.5;" width="198" x="111" y="886.6172"/><text fill="#000000" font-family="sans-serif" font-size="13" font-weight="bold" lengthAdjust="spacing" textLength="33" x="126" y="899.6841">loop</text><text fill="#000000" font-family="sans-serif" font-size="11" font-weight="bold" lengthAdjust="spacing" textLength="94" x="204" y="898.8276">[NumPlayer-1]</text><path d="M131,910.75 L204,910.75 L204,917.8828 L194,927.8828 L131,927.8828 L131,910.75 " fill="#EEEEEE" style="stroke:#000000;stroke-width:1.5;"/><rect fill="none" height="17.1328" style="stroke:#000000;stroke-width:1.5;" width="171" x="131" y="910.75"/><text fill="#000000" font-family="sans-serif" font-size="13" font-weight="bold" lengthAdjust="spacing" textLength="23" x="146" y="923.8169">ref</text><text fill="#000000" font-family="sans-serif" font-size="11" font-weight="bold" lengthAdjust="spacing" textLength="78" x="219" y="922.9604">[pickPlayer]</text><line style="stroke:#181818;stroke-width:1.0;" x1="168" x2="210" y1="956.0156" y2="956.0156"/><line style="stroke:#181818;stroke-width:1.0;" x1="210" x2="210" y1="956.0156" y2="969.0156"/><line style="stroke:#181818;stroke-width:1.0;" x1="169" x2="210" y1="969.0156" y2="969.0156"/><polygon fill="#181818" points="179,965.0156,169,969.0156,179,973.0156,175,969.0156" style="stroke:#181818;stroke-width:1.0;"/><text fill="#000000" font-family="sans-serif" font-size="13" lengthAdjust="spacing" textLength="122" x="175" y="950.9497">selection.transfer()</text><polygon fill="#181818" points="1345.5,1001.1484,1355.5,1005.1484,1345.5,1009.1484,1349.5,1005.1484" style="stroke:#181818;stroke-width:1.0;"/><line style="stroke:#181818;stroke-width:1.0;" x1="168" x2="1351.5" y1="1005.1484" y2="1005.1484"/><text fill="#000000" font-family="sans-serif" font-size="13" lengthAdjust="spacing" textLength="231" x="175" y="1000.0825">get(nextPlayer).setTricks(tricks + 1)</text><polygon fill="#181818" points="179,1030.2813,169,1034.2813,179,1038.2813,175,1034.2813" style="stroke:#181818;stroke-width:1.0;"/><line style="stroke:#181818;stroke-width:1.0;stroke-dasharray:2.0,2.0;" x1="173" x2="1356.5" y1="1034.2813" y2="1034.2813"/><text fill="#000000" font-family="sans-serif" font-size="13" lengthAdjust="spacing" textLength="54" x="185" y="1029.2153">int tricks</text><line style="stroke:#181818;stroke-width:1.0;" x1="168" x2="210" y1="1063.4141" y2="1063.4141"/><line style="stroke:#181818;stroke-width:1.0;" x1="210" x2="210" y1="1063.4141" y2="1076.4141"/><line style="stroke:#181818;stroke-width:1.0;" x1="169" x2="210" y1="1076.4141" y2="1076.4141"/><polygon fill="#181818" points="179,1072.4141,169,1076.4141,179,1080.4141,175,1076.4141" style="stroke:#181818;stroke-width:1.0;"/><text fill="#000000" font-family="sans-serif" font-size="13" lengthAdjust="spacing" textLength="282" x="175" y="1058.3481">players.get(nextPlayer).setTricks(tricks + 1)</text><line style="stroke:#181818;stroke-width:1.0;" x1="168" x2="210" y1="1105.5469" y2="1105.5469"/><line style="stroke:#181818;stroke-width:1.0;" x1="210" x2="210" y1="1105.5469" y2="1118.5469"/><line style="stroke:#181818;stroke-width:1.0;" x1="169" x2="210" y1="1118.5469" y2="1118.5469"/><polygon fill="#181818" points="179,1114.5469,169,1118.5469,179,1122.5469,175,1118.5469" style="stroke:#181818;stroke-width:1.0;"/><text fill="#000000" font-family="sans-serif" font-size="13" lengthAdjust="spacing" textLength="261" x="175" y="1100.481">updatePlayerScoreActors(int nextPlayer)</text><polygon fill="#181818" points="554.5,1150.6797,564.5,1154.6797,554.5,1158.6797,558.5,1154.6797" style="stroke:#181818;stroke-width:1.0;"/><line style="stroke:#181818;stroke-width:1.0;" x1="168" x2="560.5" y1="1154.6797" y2="1154.6797"/><text fill="#000000" font-family="sans-serif" font-size="13" lengthAdjust="spacing" textLength="56" x="175" y="1149.6138">Rule rule</text><line style="stroke:#181818;stroke-width:1.0;" x1="566.5" x2="608.5" y1="1183.8125" y2="1183.8125"/><line style="stroke:#181818;stroke-width:1.0;" x1="608.5" x2="608.5" y1="1183.8125" y2="1196.8125"/><line style="stroke:#181818;stroke-width:1.0;" x1="567.5" x2="608.5" y1="1196.8125" y2="1196.8125"/><polygon fill="#181818" points="577.5,1192.8125,567.5,1196.8125,577.5,1200.8125,573.5,1196.8125" style="stroke:#181818;stroke-width:1.0;"/><text fill="#000000" font-family="sans-serif" font-size="13" lengthAdjust="spacing" textLength="271" x="573.5" y="1178.7466">updatePlayerScores(List&lt;Player&gt; players)</text><line style="stroke:#181818;stroke-width:1.0;" x1="168" x2="210" y1="1225.9453" y2="1225.9453"/><line style="stroke:#181818;stroke-width:1.0;" x1="210" x2="210" y1="1225.9453" y2="1238.9453"/><line style="stroke:#181818;stroke-width:1.0;" x1="169" x2="210" y1="1238.9453" y2="1238.9453"/><polygon fill="#181818" points="179,1234.9453,169,1238.9453,179,1242.9453,175,1238.9453" style="stroke:#181818;stroke-width:1.0;"/><text fill="#000000" font-family="sans-serif" font-size="13" lengthAdjust="spacing" textLength="134" x="175" y="1220.8794">gameEndOperation()</text><path d="M111,1253.9453 L189,1253.9453 L189,1261.0781 L179,1271.0781 L111,1271.0781 L111,1253.9453 " fill="#EEEEEE" style="stroke:#000000;stroke-width:1.5;"/><rect fill="none" height="59.2656" style="stroke:#000000;stroke-width:1.5;" width="271" x="111" y="1253.9453"/><text fill="#000000" font-family="sans-serif" font-size="13" font-weight="bold" lengthAdjust="spacing" textLength="33" x="126" y="1267.0122">loop</text><text fill="#000000" font-family="sans-serif" font-size="11" font-weight="bold" lengthAdjust="spacing" textLength="136" x="204" y="1266.1558">[i = [0: players.size]]</text><line style="stroke:#181818;stroke-width:1.0;" x1="168" x2="210" y1="1292.2109" y2="1292.2109"/><line style="stroke:#181818;stroke-width:1.0;" x1="210" x2="210" y1="1292.2109" y2="1305.2109"/><line style="stroke:#181818;stroke-width:1.0;" x1="169" x2="210" y1="1305.2109" y2="1305.2109"/><polygon fill="#181818" points="179,1301.2109,169,1305.2109,179,1309.2109,175,1305.2109" style="stroke:#181818;stroke-width:1.0;"/><text fill="#000000" font-family="sans-serif" font-size="13" lengthAdjust="spacing" textLength="195" x="175" y="1287.145">updatePlayerScoreActors(int i)</text><path d="M101,1327.2109 L179,1327.2109 L179,1334.3438 L169,1344.3438 L101,1344.3438 L101,1327.2109 " fill="#EEEEEE" style="stroke:#000000;stroke-width:1.5;"/><rect fill="none" height="134.5313" style="stroke:#000000;stroke-width:1.5;" width="369" x="101" y="1327.2109"/><text fill="#000000" font-family="sans-serif" font-size="13" font-weight="bold" lengthAdjust="spacing" textLength="33" x="116" y="1340.2778">loop</text><text fill="#000000" font-family="sans-serif" font-size="11" font-weight="bold" lengthAdjust="spacing" textLength="136" x="194" y="1339.4214">[i = [0: players.size]]</text><path d="M111,1351.3438 L177,1351.3438 L177,1358.4766 L167,1368.4766 L111,1368.4766 L111,1351.3438 " fill="#EEEEEE" style="stroke:#000000;stroke-width:1.5;"/><rect fill="none" height="103.3984" style="stroke:#000000;stroke-width:1.5;" width="349" x="111" y="1351.3438"/><text fill="#000000" font-family="sans-serif" font-size="13" font-weight="bold" lengthAdjust="spacing" textLength="21" x="126" y="1364.4106">alt</text><text fill="#000000" font-family="sans-serif" font-size="11" font-weight="bold" lengthAdjust="spacing" textLength="263" x="192" y="1363.5542">[players.get(i).getScores() &gt; maxScore]</text><line style="stroke:#181818;stroke-width:1.0;" x1="168" x2="210" y1="1389.6094" y2="1389.6094"/><line style="stroke:#181818;stroke-width:1.0;" x1="210" x2="210" y1="1389.6094" y2="1402.6094"/><line style="stroke:#181818;stroke-width:1.0;" x1="169" x2="210" y1="1402.6094" y2="1402.6094"/><polygon fill="#181818" points="179,1398.6094,169,1402.6094,179,1406.6094,175,1402.6094" style="stroke:#181818;stroke-width:1.0;"/><text fill="#000000" font-family="sans-serif" font-size="13" lengthAdjust="spacing" textLength="246" x="175" y="1384.5435">maxScore = players.get(i).getScores()</text><line style="stroke:#000000;stroke-width:1.0;stroke-dasharray:2.0,2.0;" x1="111" x2="460" y1="1411.6094" y2="1411.6094"/><line style="stroke:#181818;stroke-width:1.0;" x1="168" x2="210" y1="1433.7422" y2="1433.7422"/><line style="stroke:#181818;stroke-width:1.0;" x1="210" x2="210" y1="1433.7422" y2="1446.7422"/><line style="stroke:#181818;stroke-width:1.0;" x1="169" x2="210" y1="1446.7422" y2="1446.7422"/><polygon fill="#181818" points="179,1442.7422,169,1446.7422,179,1450.7422,175,1446.7422" style="stroke:#181818;stroke-width:1.0;"/><text fill="#000000" font-family="sans-serif" font-size="13" lengthAdjust="spacing" textLength="65" x="175" y="1428.6763">maxScore</text><path d="M101,1475.7422 L179,1475.7422 L179,1482.875 L169,1492.875 L101,1492.875 L101,1475.7422 " fill="#EEEEEE" style="stroke:#000000;stroke-width:1.5;"/><rect fill="none" height="134.5313" style="stroke:#000000;stroke-width:1.5;" width="369" x="101" y="1475.7422"/><text fill="#000000" font-family="sans-serif" font-size="13" font-weight="bold" lengthAdjust="spacing" textLength="33" x="116" y="1488.8091">loop</text><text fill="#000000" font-family="sans-serif" font-size="11" font-weight="bold" lengthAdjust="spacing" textLength="136" x="194" y="1487.9526">[i = [0: players.size]]</text><path d="M111,1499.875 L177,1499.875 L177,1507.0078 L167,1517.0078 L111,1517.0078 L111,1499.875 " fill="#EEEEEE" style="stroke:#000000;stroke-width:1.5;"/><rect fill="none" height="103.3984" style="stroke:#000000;stroke-width:1.5;" width="349" x="111" y="1499.875"/><text fill="#000000" font-family="sans-serif" font-size="13" font-weight="bold" lengthAdjust="spacing" textLength="21" x="126" y="1512.9419">alt</text><text fill="#000000" font-family="sans-serif" font-size="11" font-weight="bold" lengthAdjust="spacing" textLength="263" x="192" y="1512.0854">[players.get(i).getScores() = maxScore]</text><line style="stroke:#181818;stroke-width:1.0;" x1="168" x2="210" y1="1538.1406" y2="1538.1406"/><line style="stroke:#181818;stroke-width:1.0;" x1="210" x2="210" y1="1538.1406" y2="1551.1406"/><line style="stroke:#181818;stroke-width:1.0;" x1="169" x2="210" y1="1551.1406" y2="1551.1406"/><polygon fill="#181818" points="179,1547.1406,169,1551.1406,179,1555.1406,175,1551.1406" style="stroke:#181818;stroke-width:1.0;"/><text fill="#000000" font-family="sans-serif" font-size="13" lengthAdjust="spacing" textLength="91" x="175" y="1533.0747">winners.add(i)</text><line style="stroke:#000000;stroke-width:1.0;stroke-dasharray:2.0,2.0;" x1="111" x2="460" y1="1560.1406" y2="1560.1406"/><line style="stroke:#181818;stroke-width:1.0;" x1="168" x2="210" y1="1582.2734" y2="1582.2734"/><line style="stroke:#181818;stroke-width:1.0;" x1="210" x2="210" y1="1582.2734" y2="1595.2734"/><line style="stroke:#181818;stroke-width:1.0;" x1="169" x2="210" y1="1595.2734" y2="1595.2734"/><polygon fill="#181818" points="179,1591.2734,169,1595.2734,179,1599.2734,175,1595.2734" style="stroke:#181818;stroke-width:1.0;"/><text fill="#000000" font-family="sans-serif" font-size="13" lengthAdjust="spacing" textLength="50" x="175" y="1577.2075">winners</text><polygon fill="#181818" points="11,1634.4063,1,1638.4063,11,1642.4063,7,1638.4063" style="stroke:#181818;stroke-width:1.0;"/><line style="stroke:#181818;stroke-width:1.0;" x1="5" x2="167" y1="1638.4063" y2="1638.4063"/><text fill="#000000" font-family="sans-serif" font-size="13" lengthAdjust="spacing" textLength="144" x="17" y="1633.3403">Set &lt;Integer&gt; winners</text><!--MD5=[705ef7426cd49c746c4d24bfbb704fcc]
@startuml
-> Oh_Heaven: run()
Oh_Heaven -> propertiesLoader: loadPropertiesFile()

Oh_Heaven -> Oh_Heaven: play()

loop nbRounds:
Oh_Heaven -> Rule: initTricks(List<Player> players)
Oh_Heaven -> Dealer: Dealer dealer
Dealer -> Dealer: dealingOut(Card deck, List<Player> players, int nbStartCards)
Oh_Heaven -> CompositePlayer: CompositePlayer cp
CompositePlayer -> CompositePlayer: playerSortCards(List<Player> players)
    loop [Player player: List<Player> players]:
        Oh_Heaven -> CompositePlayer: getPlayerType().equals("human")
        CompositePlayer - -> Oh_Heaven: playerType
        Oh_Heaven -> Oh_Heaven: setHumanInteraction(player)
    end
    Oh_Heaven -> Oh_Heaven: initGraphics(List<Player> players)

Oh_Heaven -> CompositePlayer: getPlayers()
CompositePlayer - -> Oh_Heaven: List<Player> players
Oh_Heaven -> ServiceRandom: getSeedRandom().nextInt(players.size())
ServiceRandom - -> Oh_Heaven: int nextPlayer
ServiceRandom -> Oh_Heaven: nextPlayer
Oh_Heaven -> Rule: Rule rule
Rule -> Rule: initBids(Suit trumps, int nextPlayer, List<Player> players)

loop i = [0:nbPlayers]:
    Oh_Heaven -> Oh_Heaven: updatePlayerScoreActors(int i)
end

group ref [pickPlayer]
end
Oh_Heaven -> Oh_Heaven: selection.transfer()

loop NumPlayer-1
group ref [pickPlayer]
end
Oh_Heaven -> Oh_Heaven: selection.transfer()
end

Oh_Heaven -> CompositePlayer: get(nextPlayer).setTricks(tricks + 1)
CompositePlayer - -> Oh_Heaven: int tricks
Oh_Heaven -> Oh_Heaven: players.get(nextPlayer).setTricks(tricks + 1)
Oh_Heaven -> Oh_Heaven: updatePlayerScoreActors(int nextPlayer)
end

Oh_Heaven -> Rule: Rule rule
Rule -> Rule: updatePlayerScores(List<Player> players)
Oh_Heaven -> Oh_Heaven: gameEndOperation()
loop i = [0: players.size]
Oh_Heaven -> Oh_Heaven: updatePlayerScoreActors(int i)
end
loop i = [0: players.size]
alt players.get(i).getScores() > maxScore
Oh_Heaven -> Oh_Heaven: maxScore = players.get(i).getScores()
else
Oh_Heaven -> Oh_Heaven: maxScore
end
end
loop i = [0: players.size]
alt players.get(i).getScores() = maxScore
Oh_Heaven -> Oh_Heaven: winners.add(i)
else
Oh_Heaven -> Oh_Heaven: winners
end
end
<- Oh_Heaven : Set <Integer> winners
@enduml

PlantUML version 1.2022.6beta4(Unknown compile time)
(GPL source distribution)
Java Runtime: Java(TM) SE Runtime Environment
JVM: Java HotSpot(TM) 64-Bit Server VM
Default Encoding: UTF-8
Language: en
Country: US
--></g></svg>